<?xml version="1.0" standalone="no"?>
<!DOCTYPE svg PUBLIC "-//W3C//DTD SVG 20010904//EN"
 "http://www.w3.org/TR/2001/REC-SVG-20010904/DTD/svg10.dtd">
<svg version="1.0" xmlns="http://www.w3.org/2000/svg"
 width="554.000000pt" height="554.000000pt" viewBox="0 0 554.000000 554.000000"
 preserveAspectRatio="xMidYMid meet">
<metadata>
Created by potrace 1.14, written by Peter Selinger 2001-2017
</metadata>
<g transform="translate(0.000000,554.000000) scale(0.100000,-0.100000)"
fill="#000000" stroke="none">
<path d="M0 2770 l0 -2770 2770 0 2770 0 0 2770 0 2770 -2770 0 -2770 0 0
-2770z m2960 2465 c218 -10 497 -73 720 -161 717 -285 1272 -901 1474 -1636
298 -1086 -160 -2217 -1129 -2791 -262 -155 -540 -256 -872 -314 -77 -14 -158
-17 -378 -18 -301 0 -389 10 -616 69 -884 231 -1566 923 -1783 1809 -53 214
-60 284 -61 572 0 175 5 300 13 355 36 233 102 459 195 667 61 137 145 285
158 281 5 -2 88 -57 184 -123 155 -107 177 -124 190 -160 8 -22 51 -173 95
-335 102 -371 366 -1320 430 -1543 33 -117 55 -176 71 -194 45 -47 51 -46 117
17 157 149 372 181 564 84 28 -14 80 -55 117 -90 l65 -64 392 0 392 0 39 44
c192 224 553 218 734 -12 32 -39 37 -42 73 -38 106 12 160 136 98 224 -46 64
25 60 -1230 68 l-1142 7 -15 51 c-49 171 -144 520 -142 522 1 1 494 -1 1094
-4 l1092 -7 42 90 c23 50 151 334 285 633 259 576 264 590 227 653 -19 32 -85
69 -122 69 -34 0 -90 -30 -108 -57 -9 -13 -125 -266 -258 -561 l-241 -537
-1044 2 c-574 2 -1045 5 -1047 7 -5 4 -118 404 -234 826 -38 140 -77 278 -85
307 l-15 52 -212 147 c-117 80 -218 152 -226 160 -12 11 -7 21 34 71 27 32 93
101 146 154 427 423 1001 678 1594 708 77 4 158 6 180 5 22 -2 87 -6 145 -9z"/>
<path d="M1464 3856 c-6 -15 20 -121 41 -172 l13 -31 178 -6 c207 -6 354 -26
542 -72 l134 -33 47 27 c26 14 80 44 119 66 40 21 69 42 64 46 -15 15 -250 88
-364 113 -156 35 -293 54 -485 66 -220 14 -282 13 -289 -4z"/>
<path d="M3682 3860 c-734 -51 -1345 -345 -1795 -865 l-61 -70 50 -7 c27 -3
87 -7 134 -7 l84 -1 66 64 c187 183 390 327 615 436 319 156 620 227 1015 239
l204 6 44 99 c23 54 41 100 39 102 -9 9 -282 12 -395 4z"/>
<path d="M1650 3164 c0 -61 56 -204 81 -204 4 0 46 45 93 99 l86 99 -38 6
c-20 3 -79 8 -129 12 -85 6 -93 5 -93 -12z"/>
<path d="M3499 3150 c-183 -33 -348 -93 -510 -187 l-84 -48 374 -3 c206 -1
378 1 382 5 4 5 32 63 62 131 l55 122 -86 -1 c-48 0 -134 -9 -193 -19z"/>
<path d="M2017 1759 c-110 -26 -202 -101 -254 -207 -36 -72 -38 -81 -38 -171
0 -83 4 -104 27 -154 35 -75 113 -156 185 -193 54 -27 66 -29 168 -29 101 0
115 2 168 28 74 37 144 107 182 183 28 54 30 67 30 164 0 88 -4 113 -23 154
-79 173 -266 267 -445 225z"/>
<path d="M3588 1751 c-76 -25 -118 -52 -176 -116 -79 -86 -117 -220 -92 -327
29 -122 103 -219 208 -270 62 -31 73 -33 172 -33 93 0 112 3 162 27 234 109
298 415 126 603 -109 120 -255 162 -400 116z"/>
</g>
</svg>
